<?xml version="1.0" standalone="no"?>
<!DOCTYPE svg PUBLIC "-//W3C//DTD SVG 20010904//EN"
 "http://www.w3.org/TR/2001/REC-SVG-20010904/DTD/svg10.dtd">
<svg version="1.0" xmlns="http://www.w3.org/2000/svg"
 width="649.000000pt" height="159.000000pt" viewBox="0 0 649.000000 159.000000"
 preserveAspectRatio="xMidYMid meet">

<g transform="translate(0.000000,159.000000) scale(0.100000,-0.100000)"
fill="#000000" stroke="none">
<path d="M1047 1538 c-14 -18 -43 -69 -63 -112 -31 -64 -38 -93 -42 -157 -7
-127 12 -160 171 -293 124 -103 182 -162 250 -254 83 -113 127 -229 127 -337
l0 -59 30 34 c51 60 99 162 112 239 31 182 -45 347 -277 601 -119 130 -214
249 -251 316 l-32 56 -25 -34z"/>
<path d="M6057 1230 c-134 -17 -225 -100 -235 -214 -5 -67 9 -112 53 -163 41
-48 112 -81 259 -121 117 -32 156 -54 171 -96 13 -38 -19 -95 -65 -118 -42
-22 -137 -24 -183 -4 -41 16 -86 69 -94 108 -3 15 -9 31 -13 33 -4 3 -43 2
-85 -2 l-77 -6 6 -37 c15 -93 73 -177 148 -214 133 -64 353 -50 446 30 76 65
104 152 83 256 -23 108 -95 161 -286 213 -132 35 -182 58 -197 89 -27 60 33
107 138 108 83 0 123 -22 144 -81 l15 -43 50 6 c28 3 65 6 83 6 29 0 32 3 32
32 0 46 -36 113 -81 152 -65 55 -189 81 -312 66z"/>
<path d="M331 1198 c-12 -31 -312 -800 -318 -815 -4 -10 17 -13 85 -13 l90 0
18 47 c10 27 25 68 35 93 l17 45 174 3 174 2 34 -95 35 -95 93 0 c50 0 92 1
92 3 0 1 -76 191 -168 422 l-168 420 -92 3 c-88 3 -93 2 -101 -20z m158 -332
c28 -77 51 -145 51 -153 0 -10 -25 -13 -110 -13 -81 0 -110 3 -110 13 0 23
105 306 111 299 4 -4 30 -70 58 -146z"/>
<path d="M1840 795 l0 -425 325 0 325 0 0 70 0 70 -240 0 -241 0 3 117 3 118
213 3 212 2 0 70 0 70 -215 0 -216 0 3 93 3 92 233 3 232 2 0 70 0 70 -320 0
-320 0 0 -425z"/>
<path d="M2560 1213 c0 -4 67 -195 149 -423 l149 -415 93 0 94 0 151 423 152
423 -91 -3 -90 -3 -99 -295 c-115 -346 -107 -324 -114 -318 -2 3 -51 142 -108
309 l-104 304 -91 3 c-50 1 -91 -1 -91 -5z"/>
<path d="M3440 795 l0 -425 325 0 325 0 0 70 0 70 -240 0 -240 0 0 120 0 120
215 0 215 0 0 70 0 70 -215 0 -215 0 0 95 0 95 230 0 230 0 0 70 0 70 -315 0
-315 0 0 -425z"/>
<path d="M4240 795 l0 -425 80 0 80 0 0 277 0 277 171 -277 171 -277 84 0 84
0 0 425 0 425 -75 0 -75 0 0 -281 c0 -154 -4 -278 -8 -275 -5 3 -85 129 -177
281 l-169 275 -83 0 -83 0 0 -425z"/>
<path d="M5040 1150 l0 -70 125 0 125 0 0 -355 0 -355 85 0 85 0 0 355 0 355
130 0 130 0 0 70 0 70 -340 0 -340 0 0 -70z"/>
<path d="M1072 808 c-28 -35 -64 -127 -69 -174 -7 -70 20 -127 84 -176 70 -53
178 -165 214 -223 40 -63 69 -143 69 -191 0 -35 1 -36 18 -21 26 24 59 94 73
154 10 43 9 63 -5 120 -22 92 -59 148 -204 315 -68 79 -131 158 -140 176 -17
35 -24 39 -40 20z"/>
</g>
</svg>
